# xmcd
# 
# Track frame offsets:
#     182
#     63485
#     101665
#     150302
#     175397
#     208455
# 
# Disc length: 3234
# 
# Revision: 4
# Processed by: cddbd v1.5.2PL0 Copyright (c) Steve Scherf et al.
# Submitted via: fre:ac v1.0.17
# 
DISCID=510ca006
DTITLE=Herbie Hancock - The Egg
DYEAR=1993
DGENRE=Jazz
TTITLE0=The Egg
TTITLE1=Oliloqui Valley
TTITLE2=Oliloqui Valley (2)
TTITLE3=Cantaloupe Island
TTITLE4=One Finger Snap
TTITLE5=One Finger Snap (2)
EXTD=YEAR: 1993 ID3G: 8
EXTT0=
EXTT1=
EXTT2=
EXTT3=
EXTT4=
EXTT5=
PLAYORDER=
